            <svg
              xmlns="http://www.w3.org/2000/svg"
              width="24"
              height="24"
              viewBox="0 0 28 28"
              fill="none"
              className="ml-2"
            >
              <path
                d="M13.1751 23.758C13.3939 23.9767 13.6906 24.0996 13.9999 24.0996C14.3093 24.0996 14.606 23.9767 14.8248 23.758L21.4246 17.1582C21.536 17.0506 21.6249 16.9218 21.686 16.7795C21.7472 16.6372 21.7794 16.4841 21.7807 16.3292C21.7821 16.1743 21.7525 16.0206 21.6939 15.8772C21.6352 15.7339 21.5486 15.6036 21.4391 15.4941C21.3295 15.3845 21.1993 15.2979 21.0559 15.2392C20.9125 15.1806 20.7589 15.1511 20.604 15.1524C20.449 15.1537 20.296 15.1859 20.1536 15.2471C20.0113 15.3082 19.8825 15.3971 19.7749 15.5085L15.1666 20.1169L15.1666 4.66669C15.1666 4.35727 15.0437 4.06053 14.8249 3.84173C14.6061 3.62294 14.3093 3.50003 13.9999 3.50003C13.6905 3.50003 13.3938 3.62294 13.175 3.84173C12.9562 4.06053 12.8333 4.35727 12.8333 4.66669L12.8333 20.1169L8.22492 15.5085C8.00489 15.296 7.71019 15.1784 7.40429 15.1811C7.09839 15.1837 6.80578 15.3064 6.58947 15.5227C6.37316 15.739 6.25046 16.0317 6.2478 16.3376C6.24515 16.6435 6.36274 16.9382 6.57526 17.1582L13.1751 23.758Z"
                fill="white"
              />
            </svg>