                <svg
                  xmlns="http://www.w3.org/2000/svg"
                  width="19"
                  height="20"
                  viewBox="0 0 19 20"
                  fill="none"
                  className="mr-4"
                >
                  <path
                    d="M7.485 7.5C7.9638 6.89 8.68865 6.5 9.49995 6.5C10.3113 6.5 11.0361 6.89 11.5149 7.5C11.8301 7.90231 12.0302 8.39068 12.0917 8.90814C12.1533 9.4256 12.0738 9.95081 11.8625 10.4225C11.6512 10.8942 11.3169 11.293 10.8985 11.5722C10.4801 11.8515 9.9949 11.9998 9.49948 11.9998C9.00405 11.9998 8.51884 11.8515 8.10044 11.5722C7.68205 11.293 7.34771 10.8942 7.13644 10.4225C6.92517 9.95081 6.84567 9.4256 6.90722 8.90814C6.96876 8.39068 7.16882 7.90231 7.48405 7.5H7.485ZM13.0625 9.25C13.0625 8.618 12.9143 8.022 12.6521 7.5H16.625C17.0029 7.5 17.3653 7.65804 17.6326 7.93934C17.8998 8.22064 18.05 8.60218 18.05 9V9.5C18.05 11.087 16.9043 12.712 14.9007 13.284C14.6948 12.8947 14.3938 12.5704 14.0289 12.3446C13.6639 12.1189 13.2483 11.9999 12.825 12H11.9225C12.2825 11.6493 12.5697 11.2239 12.7659 10.7506C12.9621 10.2773 13.0631 9.76639 13.0625 9.25ZM12.825 13C13.0122 12.9995 13.1978 13.0379 13.3709 13.1131C13.544 13.1883 13.7013 13.2988 13.8337 13.4382C13.9661 13.5776 14.0711 13.7431 14.1425 13.9254C14.2139 14.1076 14.2505 14.3029 14.25 14.5V15C14.25 16.971 12.483 19 9.49995 19C6.51695 19 4.74995 16.971 4.74995 15V14.5C4.74945 14.3029 4.78597 14.1076 4.8574 13.9254C4.92884 13.7431 5.03378 13.5776 5.16621 13.4382C5.29863 13.2988 5.45592 13.1883 5.62903 13.1131C5.80215 13.0379 5.98768 12.9995 6.17495 13H12.825ZM0.949951 9.5C0.949951 11.087 2.09565 12.712 4.0992 13.284C4.3051 12.8947 4.6061 12.5704 4.97105 12.3446C5.33601 12.1189 5.75165 11.9999 6.17495 12H7.07745C6.71737 11.6493 6.43018 11.2239 6.23398 10.7506C6.03778 10.2773 5.93682 9.76639 5.93745 9.25C5.93745 8.618 6.08565 8.022 6.3488 7.5H2.37495C1.99702 7.5 1.63456 7.65804 1.36732 7.93934C1.10008 8.22064 0.949951 8.60218 0.949951 9V9.5ZM8.31245 3.75C8.31245 3.02065 8.03721 2.32118 7.54727 1.80546C7.05733 1.28973 6.39283 1 5.69995 1C5.00707 1 4.34257 1.28973 3.85263 1.80546C3.3627 2.32118 3.08745 3.02065 3.08745 3.75C3.08745 4.47935 3.3627 5.17882 3.85263 5.69454C4.34257 6.21027 5.00707 6.5 5.69995 6.5C6.39283 6.5 7.05733 6.21027 7.54727 5.69454C8.03721 5.17882 8.31245 4.47935 8.31245 3.75ZM15.9125 3.75C15.9125 3.02065 15.6372 2.32118 15.1473 1.80546C14.6573 1.28973 13.9928 1 13.3 1C12.6071 1 11.9426 1.28973 11.4526 1.80546C10.9627 2.32118 10.6875 3.02065 10.6875 3.75C10.6875 4.47935 10.9627 5.17882 11.4526 5.69454C11.9426 6.21027 12.6071 6.5 13.3 6.5C13.9928 6.5 14.6573 6.21027 15.1473 5.69454C15.6372 5.17882 15.9125 4.47935 15.9125 3.75Z"
                    fill="white"
                  />
                </svg>