            <svg
              xmlns="http://www.w3.org/2000/svg"
              width="52"
              height="52"
              viewBox="0 0 52 52"
              fill="none"
            >
              <path
                d="M45.2407 6.71366C43.6525 5.12549 41.7415 4.33249 39.5055 4.33249H12.4503C10.2143 4.33249 8.30332 5.12549 6.71515 6.71366C5.12698 8.30182 4.33398 10.2128 4.33398 12.4488V39.504C4.33398 41.74 5.12698 43.651 6.71515 45.2392C8.30332 46.8273 10.2143 47.6203 12.4503 47.6203H18.764C19.1757 47.6203 19.4855 47.6052 19.6935 47.577C19.9355 47.5285 20.1539 47.3994 20.3132 47.2108C20.519 46.9942 20.623 46.68 20.623 46.2683L20.6078 44.3508C20.5992 43.1288 20.5948 42.1625 20.5948 41.4475L19.9448 41.5602C19.5332 41.636 19.0132 41.6685 18.3827 41.6598C17.7255 41.6477 17.0704 41.5817 16.424 41.4627C15.7359 41.3356 15.0881 41.0459 14.5347 40.6177C13.9551 40.1792 13.5228 39.5746 13.2953 38.8843L13.0137 38.2343C12.7762 37.7216 12.478 37.2393 12.1253 36.7978C11.7223 36.2713 11.3128 35.916 10.899 35.7275L10.704 35.5867C10.568 35.4893 10.4443 35.3758 10.3357 35.2487C10.2319 35.1307 10.1464 34.9977 10.0822 34.8543C10.0258 34.7222 10.0735 34.6138 10.223 34.5293C10.3747 34.4427 10.6455 34.4015 11.042 34.4015L11.6053 34.4882C11.9802 34.5618 12.446 34.7872 12.9985 35.162C13.5576 35.5432 14.0247 36.0443 14.3657 36.6288C14.799 37.398 15.319 37.9852 15.93 38.3903C16.541 38.7933 17.1563 38.997 17.776 38.997C18.3957 38.997 18.9308 38.9493 19.3837 38.8562C19.8216 38.7656 20.2471 38.623 20.6512 38.4315C20.8202 37.1748 21.2795 36.2042 22.0313 35.5282C21.0571 35.4326 20.0916 35.2632 19.1432 35.0212C18.2175 34.7669 17.3274 34.3979 16.4933 33.9227C15.6207 33.4476 14.8499 32.8056 14.2248 32.0333C13.6247 31.2815 13.1307 30.2957 12.745 29.0758C12.3615 27.8538 12.1687 26.4433 12.1687 24.8465C12.1687 22.5737 12.9097 20.6388 14.3938 19.0398C13.7005 17.3325 13.7655 15.415 14.591 13.2938C15.137 13.1227 15.9452 13.2505 17.0155 13.673C18.0858 14.0955 18.8702 14.4573 19.3685 14.7563C19.8668 15.0597 20.2655 15.3132 20.5667 15.519C22.3281 15.0288 24.1484 14.7824 25.9768 14.7867C27.838 14.7867 29.6407 15.0315 31.3892 15.519L32.4595 14.843C33.2828 14.3487 34.1512 13.9337 35.053 13.6037C36.0497 13.2267 36.808 13.1248 37.3367 13.2938C38.1817 15.4172 38.2553 17.3325 37.5598 19.042C39.044 20.6388 39.7872 22.5737 39.7872 24.8487C39.7872 26.4455 39.5943 27.8603 39.2087 29.0888C38.8252 30.3195 38.3268 31.3053 37.7158 32.0485C37.0797 32.8109 36.3057 33.4467 35.4343 33.9227C34.5243 34.4297 33.6403 34.7958 32.7845 35.0212C31.8361 35.2639 30.8706 35.4342 29.8963 35.5303C30.8713 36.3753 31.361 37.7078 31.361 39.53V46.2683C31.361 46.5868 31.4065 46.8447 31.5018 47.0418C31.5456 47.1368 31.6081 47.222 31.6855 47.2924C31.763 47.3627 31.8537 47.4168 31.9525 47.4513C32.1605 47.525 32.3425 47.5727 32.5028 47.59C32.6632 47.6117 32.8928 47.6182 33.1918 47.6182H39.5055C41.7415 47.6182 43.6525 46.8252 45.2407 45.237C46.8267 43.651 47.6218 41.7378 47.6218 39.5018V12.4488C47.6218 10.2128 46.8288 8.30182 45.2407 6.71366Z"
                fill="#F7F6EF"
              />
            </svg>