            <svg
              xmlns="http://www.w3.org/2000/svg"
              width="51"
              height="51"
              viewBox="0 0 51 51"
              fill="none"
            >
              <path
                d="M16.5757 4.24915H34.4257C41.2257 4.24915 46.7507 9.77415 46.7507 16.5741V34.4241C46.7507 37.6929 45.4522 40.8279 43.1408 43.1392C40.8294 45.4506 37.6945 46.7491 34.4257 46.7491H16.5757C9.77573 46.7491 4.25073 41.2241 4.25073 34.4241V16.5741C4.25073 13.3054 5.54926 10.1704 7.86064 7.85905C10.172 5.54767 13.3069 4.24915 16.5757 4.24915ZM16.1507 8.49915C14.1218 8.49915 12.176 9.30513 10.7414 10.7398C9.30671 12.1744 8.50073 14.1202 8.50073 16.1491V34.8491C8.50073 39.0779 11.922 42.4991 16.1507 42.4991H34.8507C36.8796 42.4991 38.8254 41.6932 40.2601 40.2585C41.6948 38.8239 42.5007 36.8781 42.5007 34.8491V16.1491C42.5007 11.9204 39.0795 8.49915 34.8507 8.49915H16.1507ZM36.657 11.6866C37.3615 11.6866 38.0371 11.9665 38.5352 12.4646C39.0334 12.9628 39.3132 13.6384 39.3132 14.3429C39.3132 15.0474 39.0334 15.723 38.5352 16.2211C38.0371 16.7193 37.3615 16.9991 36.657 16.9991C35.9525 16.9991 35.2769 16.7193 34.7787 16.2211C34.2806 15.723 34.0007 15.0474 34.0007 14.3429C34.0007 13.6384 34.2806 12.9628 34.7787 12.4646C35.2769 11.9665 35.9525 11.6866 36.657 11.6866ZM25.5007 14.8741C28.3187 14.8741 31.0212 15.9936 33.0137 17.9861C35.0063 19.9787 36.1257 22.6812 36.1257 25.4991C36.1257 28.3171 35.0063 31.0196 33.0137 33.0122C31.0212 35.0047 28.3187 36.1241 25.5007 36.1241C22.6828 36.1241 19.9803 35.0047 17.9877 33.0122C15.9951 31.0196 14.8757 28.3171 14.8757 25.4991C14.8757 22.6812 15.9951 19.9787 17.9877 17.9861C19.9803 15.9936 22.6828 14.8741 25.5007 14.8741ZM25.5007 19.1241C23.81 19.1241 22.1885 19.7958 20.9929 20.9913C19.7974 22.1869 19.1257 23.8084 19.1257 25.4991C19.1257 27.1899 19.7974 28.8114 20.9929 30.007C22.1885 31.2025 23.81 31.8741 25.5007 31.8741C27.1915 31.8741 28.813 31.2025 30.0085 30.007C31.2041 28.8114 31.8757 27.1899 31.8757 25.4991C31.8757 23.8084 31.2041 22.1869 30.0085 20.9913C28.813 19.7958 27.1915 19.1241 25.5007 19.1241Z"
                fill="#F7F6EF"
              />
            </svg>