            <svg
              xmlns="http://www.w3.org/2000/svg"
              width="55"
              height="55"
              viewBox="0 0 55 55"
              fill="none"
            >
              <path
                d="M43.5422 6.87415C44.7577 6.87415 45.9235 7.35703 46.7831 8.21657C47.6426 9.07611 48.1255 10.2419 48.1255 11.4575V43.5408C48.1255 44.7564 47.6426 45.9222 46.7831 46.7817C45.9235 47.6413 44.7577 48.1241 43.5422 48.1241H11.4588C10.2432 48.1241 9.07746 47.6413 8.21792 46.7817C7.35837 45.9222 6.87549 44.7564 6.87549 43.5408V11.4575C6.87549 10.2419 7.35837 9.07611 8.21792 8.21657C9.07746 7.35703 10.2432 6.87415 11.4588 6.87415H43.5422ZM42.3963 42.395V30.2491C42.3963 28.2678 41.6092 26.3675 40.2082 24.9665C38.8071 23.5654 36.9069 22.7783 34.9255 22.7783C32.9776 22.7783 30.7088 23.97 29.6088 25.7575V23.2137H23.2151V42.395H29.6088V31.0971C29.6088 29.3325 31.0297 27.8887 32.7942 27.8887C33.6451 27.8887 34.4612 28.2267 35.0629 28.8284C35.6646 29.4301 36.0026 30.2462 36.0026 31.0971V42.395H42.3963ZM15.7672 19.6158C16.7882 19.6158 17.7675 19.2102 18.4895 18.4882C19.2115 17.7662 19.6172 16.7869 19.6172 15.7658C19.6172 13.6346 17.8984 11.8929 15.7672 11.8929C14.74 11.8929 13.7549 12.3009 13.0286 13.0272C12.3023 13.7536 11.8942 14.7387 11.8942 15.7658C11.8942 17.8971 13.6359 19.6158 15.7672 19.6158ZM18.9526 42.395V23.2137H12.6047V42.395H18.9526Z"
                fill="#F7F6EF"
              />
            </svg>