              <svg
                xmlns="http://www.w3.org/2000/svg"
                width="60"
                height="60"
                viewBox="0 0 65 65"
                fill="none"
              >
                <path
                  d="M10.8334 54.1666C9.34383 54.1666 8.06911 53.6367 7.00925 52.5768C5.94939 51.5169 5.41855 50.2413 5.41675 48.7499V16.2499C5.41675 14.7603 5.94758 13.4856 7.00925 12.4258C8.07091 11.3659 9.34564 10.8351 10.8334 10.8333H54.1667C55.6563 10.8333 56.932 11.3641 57.9936 12.4258C59.0553 13.4874 59.5852 14.7621 59.5834 16.2499V48.7499C59.5834 50.2395 59.0535 51.5151 57.9936 52.5768C56.9338 53.6385 55.6581 54.1684 54.1667 54.1666H10.8334ZM32.5001 35.2083L10.8334 21.6666V48.7499H54.1667V21.6666L32.5001 35.2083ZM32.5001 29.7916L54.1667 16.2499H10.8334L32.5001 29.7916ZM10.8334 21.6666V16.2499V48.7499V21.6666Z"
                  fill="white"
                />
              </svg>